<svg width="72" height="72" viewBox="0 0 72 72" fill="none" xmlns="http://www.w3.org/2000/svg">
<path fill-rule="evenodd" clip-rule="evenodd" d="M25.7424 12.0329C26.3342 12.0329 26.7287 11.6384 26.7287 11.0466V9.36986C26.7287 8.77808 26.3342 8.38356 25.7424 8.38356C25.1506 8.38356 24.7561 8.77808 24.7561 9.36986V11.0466C24.7561 11.5397 25.2493 12.0329 25.7424 12.0329ZM30.0821 12.7233C30.378 12.7233 30.5753 12.6247 30.7726 12.4274L31.9561 11.2438C32.3506 10.8493 32.3506 10.2575 31.9561 9.86301C31.5616 9.46849 30.9698 9.46849 30.5753 9.86301L29.3917 11.0466C28.9972 11.4411 28.9972 12.0329 29.3917 12.4274C29.589 12.6247 29.8849 12.7233 30.0821 12.7233ZM21.4027 12.7233C21.2054 12.7233 20.9095 12.6247 20.7123 12.4274L19.5287 11.2438C19.1342 10.8493 19.1342 10.2575 19.5287 9.86301C19.9232 9.46849 20.515 9.46849 20.9095 9.86301L22.0931 11.0466C22.4876 11.4411 22.4876 12.0329 22.0931 12.4274C21.8958 12.6247 21.6 12.7233 21.4027 12.7233ZM36.6904 25.2493C36.5917 25.3479 36.4931 25.5452 36.5917 25.8411L38.8602 33.6329C38.9589 34.0274 39.3534 34.2247 39.8465 34.2247H48.7232C48.526 33.8301 48.4274 33.4356 48.3287 32.9425L46.2575 24.7562C46.2082 24.7562 46.1589 24.7808 46.1095 24.8055C46.0602 24.8301 46.0109 24.8548 45.9616 24.8548H37.4794C37.1835 24.8548 36.789 24.9534 36.6904 25.2493ZM21.2054 38.9589C21.2054 38.3671 20.8109 37.9726 20.2191 37.9726H17.3589C16.8657 37.9726 16.3726 37.5781 16.3726 36.9863C16.3726 36.4932 16.7671 36 17.3589 36H20.2191C20.8109 36 21.2054 35.6055 21.2054 35.0137V32.0548C21.2054 31.5616 21.6 31.0685 22.1917 31.0685C22.6849 31.0685 23.178 31.463 23.178 32.0548V35.0137C23.178 35.6055 23.5726 36 24.1643 36H27.0246C27.5178 36 28.0109 36.3945 28.0109 36.9863C28.0109 37.4795 27.6164 37.9726 27.0246 37.9726H24.1643C23.5726 37.9726 23.178 38.3671 23.178 38.9589V41.8192C23.178 42.3123 22.7835 42.8055 22.1917 42.8055C21.6986 42.8055 21.2054 42.411 21.2054 41.8192V38.9589Z" fill="#2D58FD"/>
<path fill-rule="evenodd" clip-rule="evenodd" d="M62.137 45.5671H55.2329C54.6411 45.5671 54.2466 45.1726 54.2466 44.5808C54.2466 43.989 54.6411 43.5945 55.2329 43.5945H60.6575L51.5836 37.6767C50.9918 37.2822 50.4 36.789 49.9068 36.1973H39.7479C38.3671 36.1973 37.2822 35.3096 36.8877 34.126L34.6192 26.3342C34.4219 25.5452 34.5205 24.6575 35.0137 23.9671C35.6055 23.2767 36.4931 22.7836 37.3808 22.7836H45.5671L44.7781 19.6274C44.5808 18.7397 43.7918 18.1479 42.9041 18.1479H31.5616V17.7534C30.9699 14.9918 28.6027 13.0192 25.7425 13.0192C22.7836 13.0192 20.4164 15.0904 19.9233 17.9507V18.1479H16.7671C12.4274 18.1479 8.87671 21.6986 8.87671 26.0384V55.6274C8.87671 56.7123 9.76438 57.6 10.8493 57.6H15.8794C15.8794 60.3616 18.0493 62.5315 20.811 62.5315C23.1781 62.5315 25.1507 60.8548 25.6438 58.5863H25.7425H45.2712H45.3699C45.863 60.8548 47.8356 62.5315 50.2027 62.5315C52.9644 62.5315 55.1342 60.3616 55.1342 57.6H55.2329H60.1644C61.2493 57.6 62.137 56.7123 62.137 55.6274V45.5671ZM25.7425 15.0904C27.6164 15.0904 29.1945 16.3726 29.589 18.2466H21.8959C22.2904 16.3726 23.8685 15.0904 25.7425 15.0904ZM17.2603 34.0274C15.6822 34.0274 14.3014 35.3096 14.3014 36.9863C14.3014 38.663 15.6822 39.9452 17.2603 39.9452H19.1342V41.8192C19.1342 43.3973 20.5151 44.7781 22.0931 44.7781C23.6712 44.7781 25.0521 43.4959 25.0521 41.8192V39.9452H26.926C28.5041 39.9452 29.8849 38.5644 29.8849 36.9863C29.8849 35.4082 28.6027 34.0274 26.926 34.0274H25.0521V32.0548C25.0521 30.4767 23.6712 29.0959 22.0931 29.0959C20.5151 29.0959 19.1342 30.3781 19.1342 32.0548V34.0274H17.2603Z" fill="#2D58FD"/>
</svg>
