<svg width="72" height="72" viewBox="0 0 72 72" fill="none" xmlns="http://www.w3.org/2000/svg">
<path fill-rule="evenodd" clip-rule="evenodd" d="M43.4 26.1H41.9C40.3 26.1 39.2 24.9 39.2 23.3C39.2 21.7 40.4 20.5 41.9 20.5H43.4V19C43.4 17.4 44.6 16.2 46.1 16.2C47.6 16.2 48.8 17.5 48.8 19V20.5H50.3C51.8 20.5 53 21.7 53 23.3C53 24.9 51.8 26.1 50.3 26.1H48.8V27.6C48.8 29.2 47.6 30.4 46.1 30.4C44.6 30.4 43.4 29.1 43.4 27.6V26.1ZM44.4 22.6H41.9C41.4 22.6 41.1 23 41.2 23.4C41.2 23.9 41.5 24.2 41.9 24.2H44.4C45 24.2 45.4 24.6 45.4 25.2V27.7C45.4 28.2 45.7 28.5 46.1 28.5C46.5 28.5 46.8 28.1 46.8 27.7V25.2C46.8 24.6 47.2 24.2 47.8 24.2H50.3C50.7 24.2 51 23.8 51 23.4C51 22.9 50.7 22.6 50.3 22.6H47.8C47.2 22.6 46.8 22.2 46.8 21.6V19.1C46.8 18.6 46.5 18.3 46.1 18.3C45.7 18.3 45.4 18.7 45.4 19.1V21.6C45.4 22.2 45 22.6 44.4 22.6Z" fill="white"/>
<path fill-rule="evenodd" clip-rule="evenodd" d="M60.5 13.2V33.7C61.9 34.3 62.9 35.7 63 37.4V56.7C63 58.9 61.2 60.7 59 60.7H13.1C10.9 60.7 9.09998 58.9 9.09998 56.7V28.7C9.09998 26.5 10.9 24.7 13.1 24.7H24.3C25.8 24.7 27.1 25.5 27.8 26.7L30.5 31.3C30.8 31.8 31.2 32.3 31.7 32.6V13.2C31.7 11.5 33 10.2 34.7 10.2H57.5C59.2 10.2 60.5 11.5 60.5 13.2ZM34.7 12.2C34.1 12.2 33.7 12.6 33.7 13.2H33.6V33.3H33.9H58.5V13.2C58.5 12.6 58.1 12.2 57.5 12.2H34.7ZM33.6 51H15.6C15 51 14.6 50.6 14.6 50C14.6 49.4 15 49 15.6 49H33.6C34.2 49 34.6 49.4 34.6 50C34.6 50.6 34.2 51 33.6 51ZM15.6 46H33.6C34.2 46 34.6 45.6 34.6 45C34.6 44.4 34.2 44 33.6 44H15.6C15 44 14.6 44.4 14.6 45C14.6 45.6 15 46 15.6 46Z" fill="white"/>
</svg>
