<svg width="72" height="72" viewBox="0 0 72 72" fill="none" xmlns="http://www.w3.org/2000/svg">
<path fill-rule="evenodd" clip-rule="evenodd" d="M45.4 20.7C46.4 22.6 46.1 25 44.5 26.6C42.5 28.6 39.2 28.6 37.1 26.6C35.6 25.1 35.2 22.7 36.2 20.7L40.8 11.7L45.4 20.7ZM60.4 40.2C62.3 38.2999 62.7 35.4 61.5 33.1L56 22.4L50.5 33.1C49.3 35.5 49.7 38.2999 51.6 40.2C54.1 42.6 58 42.6 60.4 40.2ZM58.9 52.1H49C46.1 52.1 43.3 51.3 40.8 49.9C42.1 48.6 42.1 46.5 40.8 45.2L32 36.2C29.5 33.7 26.1 32.3 22.5 32.3H18.6C18.3 30.9 17.1 29.9 15.7 29.9H12C10.4 29.9 9 31.2 9 32.9V47.2999C9 48.9 10.3 50.2999 12 50.2999H15.7C17 50.2999 18.1 49.5 18.5 48.4C19.8 48.8 25 50.4 27.6 53L27.7 53.1C32.4 57.8 38.8 60.4 45.4 60.4H59C61.3 60.4 63.1 58.6 63.1 56.2999C63.1 54 61.2 52.1 58.9 52.1Z" fill="white"/>
</svg>
