<svg width="72" height="72" viewBox="0 0 72 72" fill="none" xmlns="http://www.w3.org/2000/svg">
<path fill-rule="evenodd" clip-rule="evenodd" d="M57.2 41.5L63.6 47.9C63.9 48.3 63.9 48.9 63.5 49.4C63.3 49.6 63 49.7 62.8 49.7C62.6 49.7 62.3 49.6 62.1 49.4L55.7 43C54.2 44.3 52.4 45.2 50.4 45.7C50.8 50.2 50.5 55.5 48.4 59.3C47.9 60.1 47 60.6 46 60.6C44.8 60.6 43.7 59.8 43.4 58.6C42.6 55.1 40.8 48.7 37.8 46.9L37.7 46.8C34 44.7 29.4 44.7 25.7 46.8C22.7 48.5 20.9 55 20 58.5C19.7 59.7 18.6 60.6 17.4 60.6C16.5 60.6 15.6 60.1 15.1 59.3C10.6 51.3 14.6 36.1 14.6 36.1V36C14.2623 35.7298 13.9702 35.414 13.6929 35.1142C13.5597 34.9702 13.4299 34.8298 13.3 34.7C8.30004 29.6 7.90004 21.8 12.4 16.3L13.4 15.1C18.4 10.3 26.6 10.3 31.7 15.1L32 14.9C37.1 10.3 45.2 10.4 50.2 15.1L50.3 15.2C52.3 17.2 53.6 19.6 54.1 22.1C57.8 24.3 60.3 28.4 60.3 33.1C60.3 36.3 59.1 39.2 57.2 41.5ZM47.3 44C48.4 44 49.4 43.9 50.3 43.6C54.9 42.3 58.3 38.1 58.3 33C58.3 29.7 56.7 26.6 54.3 24.6C52.4 23 50 22 47.3 22C41.2 22 36.3 26.9 36.3 33C36.3 39.1 41.2 44 47.3 44Z" fill="white"/>
</svg>
