<svg width="72" height="72" viewBox="0 0 72 72" fill="none" xmlns="http://www.w3.org/2000/svg">
<path d="M43.1 32.1H38.9C38.3 32.1 37.9 31.7 37.9 31.1V26.9C37.9 25.8 37 25 36 25C34.9 25 34.1 25.9 34.1 26.9V31.1C34.1 31.7 33.7 32.1 33.1 32.1H28.9C27.8 32.1 27 33 27 34C27 35.1 27.9 35.9 28.9 35.9H33.1C33.7 35.9 34.1 36.3 34.1 36.9V41.1C34.1 42.2 35 43 36 43C37.1 43 37.9 42.1 37.9 41.1V36.9C37.9 36.3 38.3 35.9 38.9 35.9H43.1C44.2 35.9 45 35 45 34C45 32.9 44.1 32.1 43.1 32.1Z" fill="white"/>
<path fill-rule="evenodd" clip-rule="evenodd" d="M36.2 9.1C44 14.8 54.7 14.8 62.5 9.3L63 9V26.2C63 37.2 57.6 47.6 48.4 54.1L36 63L23.6 54.1C14.4 47.5 9 37.2 9 26.2V26V9C16.7 14.7 27.4 14.9 35.3 9.5L36 9L36.2 9.1ZM39.9 37.9H43.1C45.2 37.9 47 36.1 47 34C47 31.9 45.3 30.1 43.1 30.1H39.9V26.9C39.9 24.8 38.1 23 36 23C33.9 23 32.1 24.7 32.1 26.9V30.1H28.9C26.8 30.1 25 31.9 25 34C25 36.1 26.7 37.9 28.9 37.9H32.1V41.1C32.1 43.2 33.9 45 36 45C38.1 45 39.9 43.3 39.9 41.1V37.9Z" fill="white"/>
</svg>
