<svg width="72" height="72" viewBox="0 0 72 72" fill="none" xmlns="http://www.w3.org/2000/svg">
<path fill-rule="evenodd" clip-rule="evenodd" d="M58.1918 15.7808H50.7945V11.8356C50.7945 11.2438 50.4 10.8493 49.8082 10.8493C49.2165 10.8493 48.8219 11.2438 48.8219 11.8356V15.7808H37.4795V11.8356C37.4795 11.2438 37.085 10.8493 36.4932 10.8493C35.9014 10.8493 35.5069 11.2438 35.5069 11.8356V15.7808H24.1644V11.8356C24.1644 11.2438 23.7699 10.8493 23.1781 10.8493C22.5863 10.8493 22.1918 11.2438 22.1918 11.8356V15.7808H14.7945C12.0329 15.7808 9.86304 17.9507 9.86304 20.7123V55.2329C9.86304 57.9945 12.0329 60.1644 14.7945 60.1644H58.1918C60.9534 60.1644 63.1233 57.9945 63.1233 55.2329V20.7123C63.1233 17.9507 60.9534 15.7808 58.1918 15.7808ZM49.4137 31.0685C50.7945 31.0685 51.8795 32.1534 51.8795 33.5342C51.8795 34.9151 50.6959 36 49.4137 36C48.0329 36 46.948 34.9151 46.948 33.5342C46.948 32.1534 48.0329 31.0685 49.4137 31.0685ZM20.7124 46.3562C20.7124 47.737 21.7973 48.8219 23.1781 48.8219C24.5589 48.8219 25.6439 47.737 25.6439 46.3562C25.6439 44.9753 24.5589 43.8904 23.1781 43.8904C21.7973 43.8904 20.7124 44.9753 20.7124 46.3562ZM23.2767 36C21.8959 36 20.811 34.9151 20.811 33.5342C20.811 32.1534 21.8959 31.0685 23.2767 31.0685C24.6576 31.0685 25.7425 32.1534 25.7425 33.5342C25.7425 34.9151 24.5589 36 23.2767 36ZM34.0274 46.3562C34.0274 47.737 35.1124 48.8219 36.4932 48.8219C37.874 48.8219 38.9589 47.737 38.9589 46.3562C38.9589 44.9753 37.874 43.8904 36.4932 43.8904C35.1124 43.8904 34.0274 44.9753 34.0274 46.3562ZM36.5918 36C35.211 36 34.1261 34.9151 34.1261 33.5342C34.1261 32.1534 35.211 31.0685 36.5918 31.0685C37.9726 31.0685 39.0576 32.1534 39.0576 33.5342C39.0576 34.9151 37.874 36 36.5918 36ZM53.1617 50.2027C53.5562 49.8082 53.5562 49.2164 53.1617 48.8219L50.6959 46.3562L53.1617 43.8904C53.5562 43.4959 53.5562 42.9041 53.1617 42.5096C52.7671 42.1151 52.1754 42.1151 51.7808 42.5096L49.3151 44.9753L46.8493 42.5096C46.4548 42.1151 45.863 42.1151 45.4685 42.5096C45.074 42.9041 45.074 43.4959 45.4685 43.8904L47.9343 46.3562L45.4685 48.8219C45.074 49.2164 45.074 49.8082 45.4685 50.2027C45.6658 50.4 45.9617 50.4986 46.1589 50.4986C46.3562 50.4986 46.6521 50.4 46.8493 50.2027L49.3151 47.737L51.7808 50.2027C51.9781 50.4 52.274 50.4986 52.4713 50.4986C52.6685 50.4986 52.9644 50.4 53.1617 50.2027Z" fill="white"/>
</svg>
