<svg width="72" height="72" viewBox="0 0 72 72" fill="none" xmlns="http://www.w3.org/2000/svg">
<path fill-rule="evenodd" clip-rule="evenodd" d="M16.1 13.65C28.5 7.45 43 7.45 55.4 13.65C57.9 14.95 59.5 17.55 59.7 20.35V34.15C59.7 37.75 59 41.25 57.7 44.55L57.6 44.75C55.1 50.75 50.6 55.65 44.9 58.65L36.8 62.85C36.2 63.15 35.5 63.15 34.9 62.85L26.7 58.55C20.9 55.55 16.4 50.55 14 44.45C12.7 41.25 12 37.75 12 34.25V20.35C12 17.55 13.6 14.95 16.1 13.65ZM48.7 38.45C49.1 37.75 48.8 36.85 48.1 36.45L43 33.65L48.2 31.05C49 30.65 49.3 29.75 48.9 29.05L47.3 25.95C47 25.25 46 24.95 45.3 25.35L39.5 28.25V21.95C39.5 21.15 38.8 20.45 38 20.45H34.4C33.6 20.45 32.9 21.15 32.9 21.95V27.95L27.5 24.95C26.8 24.55 25.8 24.75 25.4 25.45L23.6 28.45C23.2 29.15 23.5 30.05 24.2 30.45L29.3 33.25L24.1 35.85C23.3 36.25 23 37.15 23.4 37.85L25 40.95C25.3 41.65 26.3 41.95 27 41.55L32.8 38.65V44.95C32.8 45.75 33.5 46.45 34.3 46.45H37.9C38.7 46.45 39.4 45.75 39.4 44.95V38.95L44.8 41.95C45.5 42.35 46.5 42.15 46.9 41.45L48.7 38.45Z" fill="#2D58FD"/>
</svg>
