<svg width="72" height="72" viewBox="0 0 72 72" fill="none" xmlns="http://www.w3.org/2000/svg">
<path d="M43.0001 27.3H38.8001C38.2001 27.3 37.8001 26.9 37.8001 26.3V22.1C37.8001 21 36.9001 20.2 35.9001 20.2C34.8001 20.2 34.0001 21.1 34.0001 22.1V26.3C34.0001 26.9 33.6001 27.3 33.0001 27.3H28.8001C27.7001 27.3 26.9001 28.2 26.9001 29.2C26.9001 30.3 27.8001 31.1 28.8001 31.1H33.0001C33.6001 31.1 34.0001 31.5 34.0001 32.1V36.3C34.0001 37.4 34.9001 38.2 35.9001 38.2C37.0001 38.2 37.8001 37.3 37.8001 36.3V32.1C37.8001 31.5 38.2001 31.1 38.8001 31.1H43.0001C44.1001 31.1 44.9001 30.2 44.9001 29.2C44.9001 28.2 44.1001 27.3 43.0001 27.3Z" fill="#2D58FD"/>
<path fill-rule="evenodd" clip-rule="evenodd" d="M54.9001 36L54.9 36C54.9 36 59.3 52.7 54.3 61.6C53.8 62.6 52.8 63.1 51.7 63.1C50.4 63.1 49.2 62.2 48.9 60.9C48 57.1 46 50 42.7 48L42.6 47.9C38.5 45.6 33.5 45.6 29.4 47.9C26.1 49.8 24.1 56.9 23.1 60.8C22.8 62.2 21.6 63.1 20.2 63.1C19.1 63.1 18.1 62.6 17.6 61.7C12.6 52.8 17 36.1 17 36.1V36C16.5 35.5 16 35 15.5 34.6C10 28.9 9.50005 20.4 14.5 14.3L15.6 13C21.2 7.7 30.2 7.7 35.8 13L36 12.8C41.6 7.7 50.5 7.8 56 13C56.05 13 56.075 13.025 56.1 13.05C56.125 13.075 56.15 13.1 56.2 13.1C62.3 18.9 62.3 28.3 56.5 34.3C56.0001 34.9 55.5001 35.4 54.9001 36ZM39.8 33.2H43C45.2 33.2 46.9 31.3 46.9 29.2C46.9 27.1 45.2 25.3 43 25.3H39.8V22.1C39.8 20 38 18.2 35.9 18.2C33.8 18.2 32 19.9 32 22.1V25.3H28.8C26.7 25.3 24.9 27.1 24.9 29.2C24.9 31.3 26.6 33.1 28.8 33.1H32V36.3C32 38.5 33.8 40.3 35.9 40.3C38 40.3 39.8 38.6 39.8 36.4V33.2Z" fill="#2D58FD"/>
</svg>
