<svg width="72" height="72" viewBox="0 0 72 72" fill="none" xmlns="http://www.w3.org/2000/svg">
<path d="M60.2999 42.3L49.9999 36.4L60.5999 31C62.0999 30.2 62.6999 28.4 61.8999 26.9L58.5999 20.4C57.7999 18.9 55.9999 18.3 54.4999 19.1L42.6999 25.1V11.8C42.6999 10.1 41.2999 8.70001 39.5999 8.70001H32.2999C30.5999 8.70001 29.1999 10.1 29.1999 11.8V24.4L18.2999 18.1C16.7999 17.3 14.8999 17.8 14.0999 19.2L10.4999 25.5C9.6999 27 10.1999 28.9 11.5999 29.7L21.9999 35.6L11.3999 41C9.8999 41.8 9.2999 43.6 10.0999 45.1L13.3999 51.6C14.1999 53.1 15.9999 53.7 17.4999 52.9L29.2999 46.9V60.2C29.2999 61.9 30.6999 63.3 32.3999 63.3H39.6999C41.3999 63.3 42.7999 61.9 42.7999 60.2V47.6L53.6999 53.9C55.1999 54.7 57.0999 54.2 57.8999 52.8L61.4999 46.5C62.2999 45 61.7999 43.1 60.2999 42.3Z" fill="#2D58FD"/>
</svg>
