<svg width="72" height="72" viewBox="0 0 72 72" fill="none" xmlns="http://www.w3.org/2000/svg">
<path d="M40.314 36.709C40.314 34.543 38.552 32.781 36.386 32.781H18.524C18.328 32.781 18 32.792 18 32.792V51.869L18.365 51.767C19.542 51.436 20.693 51.016 21.816 50.528C21.257 48.414 21.851 46.162 23.401 44.612L30.617 37.396C31.008 37.006 31.641 37.006 32.031 37.396C36.453 41.817 36.453 48.927 32.084 53.295C30.913 54.467 29.338 55.093 27.736 55.093C27.002 55.093 26.263 54.962 25.553 54.691C25.552 54.69 25.551 54.689 25.549 54.688C25.271 54.584 24.996 54.455 24.733 54.307C24.252 54.035 24.082 53.426 24.353 52.944C24.625 52.463 25.235 52.293 25.715 52.564C25.893 52.665 26.076 52.751 26.263 52.822H26.265C27.79 53.403 29.517 53.032 30.67 51.881C34.038 48.513 34.245 43.162 31.292 39.551L24.815 46.026C23.86 46.98 23.443 48.33 23.664 49.644C25.665 48.592 27.541 47.304 29.219 45.795C29.629 45.425 30.261 45.458 30.631 45.869C31 46.28 30.966 46.912 30.556 47.281C27.235 50.269 23.207 52.484 18.907 53.691L18.487 53.81C18.396 53.836 18.304 53.848 18.214 53.848C18.141 53.848 18.071 53.828 18 53.813V55.66C18 59.714 21.286 63 25.34 63H31.631H39.496H40.314V62.738V36.709Z" fill="#2D58FD"/>
<path fill-rule="evenodd" clip-rule="evenodd" d="M46.0615 16.8154C46.1295 19.3404 47.4425 21.6734 49.5885 23.0244C51.7905 24.4114 53.1265 26.8324 53.1265 29.4344V55.1354C53.1265 59.4784 49.6055 63.0004 45.2625 63.0004H42.3105C42.3105 63.0004 42.3145 62.8314 42.3145 62.7384V36.7094C42.3145 33.4404 39.6545 30.7814 36.3865 30.7814H18.5245C18.3285 30.7814 18.0005 30.7754 18.0005 30.7754V29.4344C18.0005 26.8324 19.3375 24.4114 21.5395 23.0244C23.6845 21.6734 24.9985 19.3404 25.0655 16.8154H24.2405C22.1275 16.8154 20.4085 15.0954 20.4085 12.9824V12.6084C20.4085 10.0674 22.4755 8.0004 25.0175 8.0004H46.6345C49.1755 8.0004 51.2435 10.0674 51.2435 12.6084V12.9824C51.2435 15.0954 49.5245 16.8154 47.4105 16.8154H46.0615ZM22.4085 12.9824C22.4085 13.9934 23.2305 14.8154 24.2405 14.8154H27.5315V12.7404H27.5325V10.0004H25.0175C23.5785 10.0004 22.4085 11.1694 22.4085 12.6084V12.9824ZM37.0325 14.8154V13.2294H37.0275V10.0004H41.9225V13.3514H41.9215V14.8154H37.0325ZM43.9225 14.8154V14.4064V13.3514V10.0004H46.6345C48.0725 10.0004 49.2435 11.1694 49.2435 12.6084V12.9824C49.2435 13.9934 48.4215 14.8154 47.4105 14.8154H43.9225ZM35.0275 10.0004V14.4064C35.0275 14.4095 35.0286 14.4121 35.0296 14.4146C35.0302 14.416 35.0308 14.4173 35.0311 14.4187C35.0313 14.4196 35.0315 14.4205 35.0315 14.4214V14.8154H29.5335V12.7404H29.5325V10.0004H35.0275Z" fill="#2D58FD"/>
</svg>
