<svg width="72" height="72" viewBox="0 0 72 72" fill="none" xmlns="http://www.w3.org/2000/svg">
<path d="M64.4 62.9L59 57.6L59.7001 56.9C60.5001 56.1 60.5001 54.9 59.7001 54.1L55.7001 50.1C56.9001 46.6 56 42.5 53 39.6L51.3 37.9C51.3 38 51.2 38.1 51.1 38.2L46.6 42.7001C46.4 42.9001 46.1 43 45.9 43C45.7 43 45.4001 42.9001 45.2001 42.7001C44.8001 42.3001 44.8001 41.7 45.2001 41.3L49.7001 36.8C49.8001 36.7 49.9 36.7 50 36.6L44.7001 31.3C44.7001 31.4 44.6 31.5 44.5 31.6L40 36C39.8 36.2 39.5 36.3 39.3 36.3C39.1 36.3 38.8 36.2 38.6 36C38.2 35.6 38.2 35 38.6 34.6L43.1 30.1C43.2 30 43.3 30 43.4 29.9L38.1 24.6C38.1 24.7 38 24.8 37.9 24.9L33.4 29.4C33.2 29.6 32.9 29.7 32.7 29.7C32.5 29.7 32.2 29.6 32 29.4C31.6 29 31.6 28.4 32 28L36.5 23.5C36.6 23.4 36.7 23.4 36.8 23.3L31.6 18.1L38.1 11.6C38.5 11.2 38.5 10.6 38.1 10.2C37.7 9.80005 37.1 9.80005 36.7 10.2L30.2 16.7L26.4 12.9L30.3 9.00005C30.7 8.60005 30.7 8.00005 30.3 7.60005C29.9 7.20005 29.3 7.20005 28.9 7.60005L7.60005 28.9C7.20005 29.3 7.20005 29.9 7.60005 30.3C7.80005 30.5 8.10005 30.6 8.30005 30.6C8.50005 30.6 8.80005 30.5 9.00005 30.3L12.9 26.4L16.7 30.2L10.2 36.7C9.80005 37.1 9.80005 37.7 10.2 38.1C10.4 38.3 10.7 38.4 10.9 38.4C11.1 38.4 11.4 38.3 11.6 38.1L18.1 31.6L39.5 53C42.4 55.9 46.6 56.8001 50 55.7001L54 59.7001C54.8 60.5001 56 60.5001 56.8 59.7001L57.5 59L62.8 64.3C63 64.5 63.3 64.6 63.5 64.6C63.7 64.6 64.0001 64.5 64.2001 64.3C64.7001 64 64.7 63.3 64.4 62.9Z" fill="#2D58FD"/>
</svg>
