<svg width="72" height="72" viewBox="0 0 72 72" fill="none" xmlns="http://www.w3.org/2000/svg">
<path d="M56.5 16.9C55.9 16.9 55.5 17.3 55.5 17.9V60.9C55.5 61.5 55.1 61.9 54.5 61.9H20.5C19.9 61.9 19.5 62.3 19.5 62.9C19.5 63.5 19.9 63.9 20.5 63.9H54.5C56.2 63.9 57.5 62.6 57.5 60.9V17.9C57.5 17.3 57.1 16.9 56.5 16.9Z" fill="#2D58FD"/>
<path fill-rule="evenodd" clip-rule="evenodd" d="M51.5 14.9V55.9C51.5 57 50.6 57.9 49.5 57.9H17.5C16.4 57.9 15.5 57 15.5 55.9V14.9C15.5 13.8 16.4 12.9 17.5 12.9H18.8C18.8 11.6 19.4 10.3 20.3 9.40001C21.2 8.50001 22.5 8.00001 23.8 8.10001C26.3 8.30001 28.2 10.3 28.3 12.9H49.5C50.6 12.9 51.5 13.8 51.5 14.9ZM33.5 22.6C31.7 22.6 30.2 24.1 30.2 25.9V28.2H27.9C26.1 28.2 24.6 29.7 24.6 31.5C24.6 33.3 26.1 34.8 27.9 34.8H30.2V37.1C30.2 38.9 31.7 40.4 33.5 40.4C35.3 40.4 36.8 38.9 36.8 37.1V34.8H39.1C40.9 34.8 42.4 33.3 42.4 31.5C42.4 29.7 40.9 28.2 39.1 28.2H36.8V25.9C36.8 24.1 35.3 22.6 33.5 22.6ZM21.7 10.9C22.3 10.4 23 10.1 23.8 10.1C25.2 10.2 26.3 11.4 26.4 12.9H20.9C20.8 12.1 21.1 11.4 21.7 10.9ZM22.6 17.9V20.3C22.6 21.8 23.9 23.2 25.5 23.2C27.1 23.2 28.4 21.9 28.4 20.3V13.1C28.4 13.7 28 14.1 27.4 14.1C26.8 14.1 26.4 13.7 26.4 13.1V20.3C26.4 20.8 26 21.2 25.5 21.2C25 21.2 24.6 20.8 24.6 20.3V17.9C24.6 17.3 24.2 16.9 23.6 16.9C23 16.9 22.6 17.3 22.6 17.9ZM24.5 51.9C23.9 51.9 23.5 51.5 23.5 50.9C23.5 50.3 23.9 49.9 24.5 49.9H42.5C43.1 49.9 43.5 50.3 43.5 50.9C43.5 51.5 43.1 51.9 42.5 51.9H24.5ZM23.5 45.9C23.5 46.5 23.9 46.9 24.5 46.9H42.5C43.1 46.9 43.5 46.5 43.5 45.9C43.5 45.3 43.1 44.9 42.5 44.9H24.5C23.9 44.9 23.5 45.3 23.5 45.9Z" fill="#2D58FD"/>
</svg>
