<svg width="72" height="72" viewBox="0 0 72 72" fill="none" xmlns="http://www.w3.org/2000/svg">
<path fill-rule="evenodd" clip-rule="evenodd" d="M9 56.3V29.9H63V56.3C63 58.5 61.2 60.3 59 60.3H13C10.8 60.3 9 58.5 9 56.3ZM32.5 41H29.8C27.8 41 26.2 42.6 26.2 44.6C26.2 46.6 27.8 48.2 29.8 48.2H32.5V50.9C32.5 52.9 34.1 54.5 36.1 54.5C38.1 54.5 39.7 52.9 39.7 50.9V48.2H42.4C44.4 48.2 46 46.6 46 44.6C46 42.6 44.4 41 42.4 41H39.7V38.3C39.7 36.3 38.1 34.7 36.1 34.7C34.1 34.7 32.5 36.3 32.5 38.3V41Z" fill="#2D58FD"/>
<path fill-rule="evenodd" clip-rule="evenodd" d="M59 19.9H57V18.3C57 17.2 56.1 16.3 55 16.3C53.9 16.3 53 17.2 53 18.3V19.9H47V19.7C47 14.7 43 10.7 38 10.7H34C29 10.7 25 14.7 25 19.7V19.9H19V18.3C19 17.2 18.1 16.3 17 16.3C15.9 16.3 15 17.2 15 18.3V19.9H13C10.8 19.9 9 21.7 9 23.9V27.9H63V23.9C63 21.7 61.2 19.9 59 19.9ZM29.8 46.2H33.5C34.1 46.2 34.5 46.6 34.5 47.2V50.9C34.5 51.8 35.2 52.5 36.1 52.5C37 52.5 37.7 51.8 37.7 50.9V47.2C37.7 46.6 38.1 46.2 38.7 46.2H42.4C43.3 46.2 44 45.5 44 44.6C44 43.7 43.3 43 42.4 43H38.7C38.1 43 37.7 42.6 37.7 42V38.3C37.7 37.4 37 36.7 36.1 36.7C35.2 36.7 34.5 37.4 34.5 38.3V42C34.5 42.6 34.1 43 33.5 43H29.8C28.9 43 28.2 43.7 28.2 44.6C28.2 45.5 28.9 46.2 29.8 46.2ZM34 12.7C30.1 12.7 27 15.8 27 19.7V19.9H45V19.7C45 15.8 41.9 12.7 38 12.7H34Z" fill="#2D58FD"/>
</svg>
