<svg width="72" height="72" viewBox="0 0 72 72" fill="none" xmlns="http://www.w3.org/2000/svg">
<path fill-rule="evenodd" clip-rule="evenodd" d="M43.4002 26.1H41.9002C40.3002 26.1 39.2002 24.9 39.2002 23.3C39.2002 21.7 40.4002 20.5 41.9002 20.5H43.4002V19C43.4002 17.4 44.6002 16.2 46.1002 16.2C47.6002 16.2 48.8002 17.5 48.8002 19V20.5H50.3002C51.8002 20.5 53.0002 21.7 53.0002 23.3C53.0002 24.9 51.8002 26.1 50.3002 26.1H48.8002V27.6C48.8002 29.2 47.6002 30.4 46.1002 30.4C44.6002 30.4 43.4002 29.1 43.4002 27.6V26.1ZM44.4002 22.6H41.9002C41.4002 22.6 41.1002 23 41.2002 23.4C41.2002 23.9 41.5002 24.2 41.9002 24.2H44.4002C45.0002 24.2 45.4002 24.6 45.4002 25.2V27.7C45.4002 28.2 45.7002 28.5 46.1002 28.5C46.5002 28.5 46.8002 28.1 46.8002 27.7V25.2C46.8002 24.6 47.2002 24.2 47.8002 24.2H50.3002C50.7002 24.2 51.0002 23.8 51.0002 23.4C51.0002 22.9 50.7002 22.6 50.3002 22.6H47.8002C47.2002 22.6 46.8002 22.2 46.8002 21.6V19.1C46.8002 18.6 46.5002 18.3 46.1002 18.3C45.7002 18.3 45.4002 18.7 45.4002 19.1V21.6C45.4002 22.2 45.0002 22.6 44.4002 22.6Z" fill="#2D58FD"/>
<path fill-rule="evenodd" clip-rule="evenodd" d="M60.5001 13.2V33.7C61.9001 34.3 62.9001 35.7 63.0001 37.4V56.7C63.0001 58.9 61.2001 60.7 59.0001 60.7H13.1001C10.9001 60.7 9.1001 58.9 9.1001 56.7V28.7C9.1001 26.5 10.9001 24.7 13.1001 24.7H24.3001C25.8001 24.7 27.1001 25.5 27.8001 26.7L30.5001 31.3C30.8001 31.8 31.2001 32.3 31.7001 32.6V13.2C31.7001 11.5 33.0001 10.2 34.7001 10.2H57.5001C59.2001 10.2 60.5001 11.5 60.5001 13.2ZM34.7001 12.2C34.1001 12.2 33.7001 12.6 33.7001 13.2H33.6001V33.3H33.9001H58.5001V13.2C58.5001 12.6 58.1001 12.2 57.5001 12.2H34.7001ZM33.6001 51H15.6001C15.0001 51 14.6001 50.6 14.6001 50C14.6001 49.4 15.0001 49 15.6001 49H33.6001C34.2001 49 34.6001 49.4 34.6001 50C34.6001 50.6 34.2001 51 33.6001 51ZM15.6001 46H33.6001C34.2001 46 34.6001 45.6 34.6001 45C34.6001 44.4 34.2001 44 33.6001 44H15.6001C15.0001 44 14.6001 44.4 14.6001 45C14.6001 45.6 15.0001 46 15.6001 46Z" fill="#2D58FD"/>
</svg>
