<svg width="72" height="72" viewBox="0 0 72 72" fill="none" xmlns="http://www.w3.org/2000/svg">
<path d="M37.2822 48.3288C37.2822 48.526 37.2822 48.7233 37.1836 48.9206H61.8411C61.3479 42.5096 56.0219 37.4795 49.5123 37.4795C49.0192 37.4795 48.4274 37.4795 47.9342 37.5781V37.5781L54.6411 30.8713C59.474 26.0384 59.474 18.148 54.6411 13.2165C49.8082 8.38358 41.9178 8.38358 37.0849 13.3151L25.4466 24.8548C25.5452 24.9534 25.5452 24.9534 25.6438 25.0521C29.3918 31.463 34.6192 36.8877 40.7342 40.9315C40.8329 40.9315 40.8329 41.0302 40.8329 41.0302C40.3397 41.5233 39.9452 42.0165 39.5507 42.5096C33.2384 38.3671 27.8137 32.7452 23.9671 26.2356L12.8219 37.5781C7.89041 42.411 7.89041 50.3014 12.8219 55.2329C17.6548 60.0658 25.5452 60.0658 30.4767 55.2329L37.2822 48.3288V48.3288Z" fill="#2D58FD"/>
<path d="M49.5124 62.3343C56.0219 62.3343 61.348 57.3041 61.8411 50.8932H37.1836C37.6767 57.3041 43.0028 62.3343 49.5124 62.3343Z" fill="#2D58FD"/>
</svg>
