<svg width="72" height="72" viewBox="0 0 72 72" fill="none" xmlns="http://www.w3.org/2000/svg">
<path fill-rule="evenodd" clip-rule="evenodd" d="M31.4001 26.7C30.0001 26.7 29.0001 27.7 29.0001 28.8V15.3C29.0001 14.1 27.9001 13.2 26.6001 13.2C25.2001 13.2 24.2001 14.2 24.2001 15.3V11.9C24.2001 10.7 23.1001 9.79999 21.8001 9.79999C20.4001 9.79999 19.4001 10.8 19.4001 11.9V16.8C19.4001 15.6 18.3001 14.7 16.9001 14.7C15.5001 14.7 14.4001 15.7 14.4001 16.8V21.6C14.3001 20.5 13.3001 19.6 12.0001 19.6C10.6001 19.6 9.6001 20.6 9.6001 21.7V36.7C9.6001 39.8 10.4001 41.9 12.0001 44.5C13.6001 47.2 14.4001 50.2 14.4001 53.3V54.9H29.0001V53.1C29.0001 50.8 29.6001 48.5 30.7001 46.5L32.3001 43.5C33.4001 41.5 34.0001 40.2 34.0001 37.9V28.7C33.9001 27.7 32.8001 26.7 31.4001 26.7ZM57.4001 21.6C57.5001 20.5 58.5001 19.6 59.8001 19.6C61.2001 19.6 62.3001 20.6 62.6001 21.8V36.8C62.6001 39.9 61.8001 41.9 60.2001 44.6C58.6001 47.2 57.8001 50.3 57.8001 53.4V55H43.0001V53.2C43.0001 50.9 42.4001 48.6 41.3001 46.6L39.7001 43.6C38.6001 41.6 38.0001 40.3 38.0001 38V28.8C38.0001 27.7 39.0001 26.7 40.4001 26.7C41.7001 26.7 42.8001 27.6 42.8001 28.8V15.3C42.8001 14.2 43.8001 13.2 45.2001 13.2C46.5001 13.2 47.6001 14.1 47.6001 15.3V11.9C47.6001 10.8 48.6001 9.79999 50.0001 9.79999C51.3001 9.79999 52.4001 10.7 52.4001 11.9V16.8C52.4001 15.7 53.5001 14.7 54.9001 14.7C56.3001 14.7 57.4001 15.6 57.4001 16.8V21.6ZM43.0001 58.3V57.1H57.7001V58.3C57.7001 60.5 55.9001 62.3 53.7001 62.3H47.0001C44.8001 62.3 43.0001 60.5 43.0001 58.3ZM14.2001 58.3V57.1H29.0001V58.3C29.0001 60.5 27.2001 62.3 25.0001 62.3H18.2001C16.0001 62.3 14.2001 60.5 14.2001 58.3Z" fill="#2D58FD"/>
</svg>
