<svg width="72" height="72" viewBox="0 0 72 72" fill="none" xmlns="http://www.w3.org/2000/svg">
<path d="M19.7001 47.1C21.3001 46.9 22.8001 46.4 24.1001 45.4L27.8001 42.7C28.5001 42.2 29.2001 41.9 30.0001 41.6C32.7001 40.8 34.8001 38.8 35.9001 36.3L38.0001 31.5C39.0001 29.1 40.3001 26.8 41.9001 24.8C42.2001 24.4 42.1001 23.8 41.7001 23.4C39.0001 21.3 37.2001 18.2 36.6001 14.9L36.3001 13C36.2001 12.5 35.7001 12.1 35.1001 12.2C34.6001 12.3 34.2001 12.8 34.3001 13.4L34.6001 15.2C35.2001 18.7 37.0001 22 39.7001 24.3C38.3001 26.3 37.1001 28.4 36.1001 30.7L34.0001 35.5C33.1001 37.5 31.4001 39 29.4001 39.7C28.4001 40 27.5001 40.5 26.7001 41.1L23.0001 43.8C22.0001 44.5 20.8001 45 19.6001 45.1L18.9001 45.2C16.1001 45.5 13.6001 47 12.1001 49.4C11.2001 50.8 10.7001 52.5 10.7001 54.2L10.6001 59.8C10.6001 60.4 11.0001 60.8 11.6001 60.8V60.8C12.1001 60.8 12.6001 60.4 12.6001 59.8L12.7001 54.2C12.7001 52.9 13.1001 51.6 13.8001 50.5C15.0001 48.7 16.9001 47.5 19.1001 47.2L19.7001 47.1Z" fill="#2D58FD"/>
<path d="M57.4002 22.8C56.8002 21.9 56.0002 21.1 55.1002 20.5C53.6002 19.5 51.8002 19.1 50.0002 19.3L48.7002 19.4C47.3002 19.6 45.8002 19 44.9002 18C44.3002 17.4 43.9002 16.6 43.7002 15.8L42.6002 10.7C42.5002 10.2 42.0002 9.80001 41.4002 9.90001C40.9002 10 40.5002 10.5 40.6002 11.1L41.7002 16.2C42.0002 17.4 42.5002 18.5 43.4002 19.4C44.8002 20.9 46.9002 21.6 48.9002 21.4L50.2002 21.3C51.5002 21.1 52.9002 21.5 54.0002 22.2C54.7002 22.7 55.3002 23.2 55.7002 23.9C58.1002 27.7 59.4002 32.1 59.4002 36.6C59.4002 49.5 49.0002 60 36.1002 60.1H35.7002C31.7002 60.1 28.0002 58.5 25.1002 55.6L23.0002 53.5C22.5002 53 21.9002 52.7 21.3002 52.5C20.2002 52.2 19.1002 52.4 18.2002 53C17.3002 53.6 16.6002 54.5 16.4002 55.6L15.9002 59C15.8002 59.5 16.2002 60.1 16.7002 60.2C17.2002 60.3 17.8002 59.9 17.9002 59.4L18.5002 56C18.6002 55.5 18.9002 55 19.4002 54.7C19.9002 54.4 20.4002 54.3 20.9002 54.5C21.2002 54.6 21.5002 54.8 21.8002 55L23.9002 57.1C27.1002 60.4 31.4002 62.2 35.9002 62.2H36.4002C50.4002 62.1 61.7002 50.6 61.7002 36.7C61.5002 31.7 60.0002 26.9 57.4002 22.8Z" fill="#2D58FD"/>
<path d="M30.0002 49.2C28.6002 50.4 28.4002 52.6 29.6002 54.1C30.6002 55.3 32.0002 56.1 33.5002 56.3L35.6002 56.5C38.2002 56.8 40.9002 56.4 43.3002 55.3C47.3002 53.5 50.5002 50.4 52.5002 46.5C53.6002 44.3 53.7002 41.8 52.9002 39.5L52.2002 38C47.6002 43 41.4002 46.3 34.6002 47.1C32.9002 47.4 31.3002 48.1 30.0002 49.2Z" fill="#2D58FD"/>
</svg>
