<svg width="72" height="72" viewBox="0 0 72 72" fill="none" xmlns="http://www.w3.org/2000/svg">
<path fill-rule="evenodd" clip-rule="evenodd" d="M58.4001 9.60001L62.5001 13.7C63.2001 14.4 63.2001 15.5 62.6001 16.1L62.4001 16.3C61.7001 17 60.5001 17 59.8001 16.3L58.4001 14.9C58.3501 14.95 58.3251 15 58.3002 15.05C58.2752 15.1 58.2501 15.15 58.2001 15.2L57.0001 16.4L59.7001 19.1C60.1001 19.5 60.1001 20.1 59.7001 20.5C59.5001 20.7 59.2001 20.8 59.0001 20.8C58.8001 20.8 58.5001 20.7 58.3001 20.5L55.6001 17.8L54.4001 19C59.1001 24.4 59.1001 32.4 54.4001 37.8L34.2001 17.6C39.6001 12.9 47.6001 12.9 53.0001 17.6L56.7001 14C56.8001 13.9 56.9001 13.8 57.0001 13.8L55.6001 12.4C54.9001 11.7 54.9001 10.5 55.6001 9.80001L55.8001 9.60001C56.5001 8.90001 57.7001 8.90001 58.4001 9.60001ZM25.9001 35.2C25.9001 34.1 26.4001 33 27.2001 32.2C28.0001 31.4 29.2001 30.8 30.3001 30.8C31.4001 30.8 32.5001 31.3 33.3001 32.1C35.0001 33.8 35.0001 36.5 33.3001 38.2C31.6001 39.9 28.9001 39.9 27.2001 38.2C26.3001 37.4 25.9001 36.3 25.9001 35.2Z" fill="#2D58FD"/>
<path fill-rule="evenodd" clip-rule="evenodd" d="M34.1001 58.1L13.9001 37.9L32.7001 19L53.0001 39.3L34.1001 58.1ZM40.5001 43.9L38.4001 41.8C37.6001 41 36.2001 41 35.5001 41.8L33.4001 43.9C32.6001 44.7 32.6001 46 33.4001 46.8L36.3001 49.7C36.5001 49.9 36.8001 50 37.0001 50C37.2001 50 37.5001 49.9 37.7001 49.7C38.1001 49.3 38.1001 48.7 37.7001 48.3L34.8001 45.3L37.0001 43.2L39.1001 45.3C39.9001 46.1 41.2001 46.1 42.0001 45.3L44.0001 43.3C44.8001 42.5 44.8001 41.2 44.0001 40.4L41.1001 37.5C40.7001 37.1 40.1001 37.1 39.7001 37.5C39.3001 37.9 39.3001 38.5 39.7001 38.9L42.6001 41.9L40.5001 43.9ZM34.7001 39.7C33.5001 40.9 31.9001 41.5 30.2001 41.5C28.5001 41.5 27.0001 41 25.8001 39.7C24.6001 38.5 24.0001 37 24.0001 35.3C24.0001 33.6 24.7001 32 25.8001 30.8C26.9001 29.6 28.6001 29 30.3001 29C32.0001 29 33.6001 29.7 34.8001 30.8C37.2001 33.3 37.2001 37.3 34.7001 39.7ZM32.7001 59.5C27.1001 64.4 18.5001 64.1 13.2001 58.8C7.8001 53.5 7.6001 45 12.5001 39.3L32.7001 59.5Z" fill="#2D58FD"/>
</svg>
