<svg width="72" height="72" viewBox="0 0 72 72" fill="none" xmlns="http://www.w3.org/2000/svg">
<path d="M56.7 34.2C58.7 32.1 60.1 29.5 60.7 26.9C61.1 25.2 59.8 23.5 58 23.5V23.5C51.6 23.5 46.5 18.3 46.5 12V12C46.5 10.3 44.9 8.89999 43.2 9.29999C40.7 9.79999 38.3 11 36.4 12.7L36 12.9V12.9C30.4 7.59999 21.4 7.59999 15.8 12.9L14.7 14.2C9.7 20.3 10.2 28.8 15.7 34.5C16.2 35 16.6 35.4 17.1 35.9V36C17.1 36 12.7 52.7 17.7 61.6C18.2 62.5 19.2 63 20.3 63C21.7 63 22.9 62.1 23.2 60.7C24.2 56.8 26.2 49.7 29.5 47.8C33.6 45.5 38.6 45.5 42.7 47.8L42.8 47.9C46.1 49.9 48.1 57 49 60.8C49.3 62.1 50.5 63 51.8 63C52.9 63 53.9 62.5 54.4 61.5C59.4 52.6 55 36 55 36V35.9C55.6 35.4 56.2 34.8 56.7 34.2Z" fill="#2D58FD"/>
</svg>
