<svg width="72" height="72" viewBox="0 0 72 72" fill="none" xmlns="http://www.w3.org/2000/svg">
<path fill-rule="evenodd" clip-rule="evenodd" d="M26.5315 34.2247L25.9397 33.8301C22.1918 31.2658 18.8383 28.4055 15.7808 25.2493C12.9205 22.2904 12.6246 17.7534 15.2877 14.5973L15.9781 13.9068C18.8383 11.1452 23.5726 11.1452 26.5315 13.9068L26.7288 13.8082C29.6877 11.1452 34.3233 11.1452 37.1835 13.9068L37.2822 14.0055C40.4383 17.063 40.4383 21.9945 37.3808 25.1507C34.126 28.5041 30.4767 31.5616 26.5315 34.2247ZM63.5178 28.8986C63.6164 28.9973 63.6164 29.0959 63.6164 29.1945V38.2685C63.6164 38.8603 63.2219 39.2548 62.6301 39.2548C62.0383 39.2548 61.6438 38.8603 61.6438 38.2685V31.5616L43.3972 49.611C42.8055 50.2027 42.0164 50.4986 41.2274 50.4986C40.4383 50.4986 39.7479 50.2027 39.1561 49.611L31.6603 41.6219C31.463 41.4247 31.2657 41.326 30.9698 41.326C30.674 41.326 30.4767 41.4247 30.2794 41.6219L10.0603 61.8411C9.863 62.0384 9.66574 62.137 9.36985 62.137C9.07396 62.137 8.8767 62.0384 8.67944 61.8411C8.28491 61.4466 8.28491 60.8548 8.67944 60.4603L28.9972 40.3397C29.589 39.7479 30.3781 39.4521 31.1671 39.4521C31.9561 39.4521 32.6466 39.7479 33.2383 40.3397L40.7342 48.3288C40.9315 48.526 41.1287 48.6247 41.4246 48.6247C41.6219 48.6247 41.9178 48.526 42.1151 48.3288L60.263 30.2795H53.7534C53.1616 30.2795 52.7671 29.8849 52.7671 29.2932C52.7671 28.7014 53.1616 28.3069 53.7534 28.3069H62.6301C62.6794 28.3069 62.7288 28.3315 62.7781 28.3562C62.8274 28.3808 62.8767 28.4055 62.926 28.4055H63.0246C63.1233 28.4055 63.1233 28.4055 63.2219 28.5041L63.3205 28.6027C63.4192 28.7014 63.5178 28.8 63.5178 28.8986Z" fill="#2D58FD"/>
</svg>
