<svg width="40" height="40" viewBox="0 0 40 40" fill="none" xmlns="http://www.w3.org/2000/svg">
<path d="M31.8893 34.0661L31.5358 34.1088L31.4605 34.4568L31.0185 36.5H8.5V34V33.5H8H3.5V19.07L5.43456 12.2991L9.26393 9.42705L11.2236 8.44721L11.5 8.30902V8V6.27432L15.4413 3.76361L20.8159 2.94688L26.281 4.31222L29.8451 6.64939L29.5171 7.87027L29.4293 8.19701L29.7 8.4L33.6056 11.3292L35.5159 15.1499L37.2656 27.8337L36.6111 33.4962L31.8893 34.0661Z" fill="#DFF0FE" stroke="#396CF0"/>
<path d="M24.5691 7.79426L20.5 15.8915V15V14.8566L20.424 14.735L15.5123 6.8763L15.7544 4.02774L20.8554 2.52806L25.3696 4.30383L24.5691 7.79426Z" fill="#98CCFD" stroke="#396CF0"/>
<path d="M19.5 37.5V20.5L29.5 12.5L27.5 9.5C27.5 9.5 29.5 7.5 30.5 6.5C28.5 4.5 26.0703 3.64453 26.0703 3.64453" stroke="#396CF0" stroke-linecap="round" stroke-linejoin="round"/>
<path d="M27.5 32.5H31.5C31.5 31.0898 31.5 27.5 31.5 27.5H25.5V30.5C25.5 30.8633 25.5 32.5 27.5 32.5Z" stroke="#396CF0" stroke-linejoin="round"/>
<path d="M32 34.5H37.5C37.5 34.5 37.5 24.5 36.5 16.5C35.6328 9.55469 30.5 8.5 29.5 7.5" stroke="#396CF0" stroke-linejoin="round"/>
<path d="M19.5 17.5L10.5 12.5L13.5 9.5L10.5 6.5C10.5 6.5 12.9805 4.20703 14.7852 3.64453" stroke="#396CF0" stroke-linecap="round" stroke-linejoin="round"/>
<path d="M9 34.5L2.5 34.4453C2.5 34.4453 2.5 25.5 3.5 17.5C4.49219 9.5625 10.5 8.21875 11.5 7.5" stroke="#396CF0" stroke-linejoin="round"/>
<path d="M8.5 17.5312V37.5H31.5V17.5312" stroke="#396CF0" stroke-linecap="round" stroke-linejoin="round"/>
<path d="M20.4258 16.9883C20.25 14.1875 14.7852 10.3477 14.7852 3.64453C14.7852 3.64453 17.4141 2.5 20.5 2.5C23.582 2.5 26.0703 3.64453 26.0703 3.64453C26.0703 10.3477 19.5 15.6914 19.5 20.5" stroke="#396CF0" stroke-linejoin="round"/>
<path d="M12.5 32.5C8.91016 32.5 8.91016 32.5 8.5 32.5V27.5H14.5V30.5C14.5 30.8711 14.5 32.5 12.5 32.5Z" stroke="#396CF0" stroke-linejoin="round"/>
<path d="M22.5 23C22.5 23.2746 22.2746 23.5 22 23.5C21.7254 23.5 21.5 23.2746 21.5 23C21.5 22.7254 21.7254 22.5 22 22.5C22.2746 22.5 22.5 22.7254 22.5 23Z" fill="#4788C7" stroke="#396CF0"/>
<path d="M22.5 28C22.5 28.2746 22.2746 28.5 22 28.5C21.7254 28.5 21.5 28.2746 21.5 28C21.5 27.7254 21.7254 27.5 22 27.5C22.2746 27.5 22.5 27.7254 22.5 28Z" fill="#4788C7" stroke="#396CF0"/>
<path d="M22.5 33C22.5 33.2746 22.2746 33.5 22 33.5C21.7254 33.5 21.5 33.2746 21.5 33C21.5 32.7254 21.7254 32.5 22 32.5C22.2746 32.5 22.5 32.7254 22.5 33Z" fill="#4788C7" stroke="#396CF0"/>
</svg>
