<svg width="40" height="40" viewBox="0 0 40 40" fill="none" xmlns="http://www.w3.org/2000/svg">
<path d="M6.35002 0C5.71877 0 5.16878 0.359375 4.9094 0.89375C4.58128 0.965625 4.14065 1.075 3.6969 1.24062C3.25002 1.40312 2.79065 1.62188 2.38127 1.95938C1.9719 2.29688 1.58752 2.81875 1.58752 3.47188C1.58752 3.75625 1.6344 4.0875 1.71252 4.6125C1.78752 5.14062 1.90002 5.8375 2.0594 6.62188C2.3719 8.19062 2.85628 10.1875 3.4969 12.2531C4.76252 16.325 6.56877 20.6938 9.55002 22.4938C9.5469 22.5594 9.52502 22.625 9.52502 22.6938C9.52502 23.6406 9.80628 24.775 10.2938 25.7688C10.5344 26.2656 10.8313 26.7094 11.2094 27.0844C11.4125 27.2844 11.6594 27.4781 11.9281 27.6031C11.9563 29.6688 12.1563 32.2844 13.6156 34.55C15.2188 37.0344 18.3469 38.8875 23.8094 38.8875C28.7813 38.8875 31.6938 36.8344 33.2094 34.5C34.4563 32.5813 34.8094 30.5813 34.8969 29.3156C37.5938 28.9406 39.6813 26.6094 39.6813 23.8094C39.6813 20.7531 37.1844 18.2531 34.1281 18.2531C31.0656 18.2531 28.5719 20.7531 28.5719 23.8094C28.5719 26.5813 30.625 28.8813 33.2844 29.2906C33.1875 30.3719 32.8688 32.0906 31.8688 33.6313C30.6094 35.575 28.3594 37.3031 23.8094 37.3031C18.6906 37.3031 16.2594 35.7031 14.9563 33.6813C13.7688 31.8406 13.55 29.5344 13.5156 27.5781C13.7656 27.4531 13.9969 27.2688 14.1875 27.0844C14.5625 26.7094 14.8625 26.2656 15.1031 25.7688C15.5906 24.775 15.8719 23.6406 15.8719 22.6938C15.8719 22.625 15.85 22.5594 15.8469 22.4938C18.8281 20.6938 20.6344 16.325 21.9 12.2531C22.5406 10.1875 23.025 8.19062 23.3375 6.62188C23.4969 5.8375 23.6094 5.14062 23.6844 4.6125C23.7625 4.0875 23.8094 3.75625 23.8094 3.47188C23.8094 2.81875 23.425 2.29688 23.0156 1.95938C22.6063 1.62188 22.1469 1.40312 21.7 1.24062C21.2563 1.075 20.8156 0.965625 20.4875 0.89375C20.4719 0.890625 20.4781 0.896875 20.4625 0.89375C20.2031 0.365625 19.675 0 19.0469 0C18.1688 0 17.4594 0.709375 17.4594 1.5875C17.4594 2.46562 18.1688 3.175 19.0469 3.175C19.5844 3.175 20.05 2.9125 20.3375 2.50625C20.5813 2.55938 20.8688 2.62188 21.1563 2.72812C21.5031 2.85625 21.8375 3.01875 22.025 3.175C22.2094 3.32812 22.2219 3.39063 22.2219 3.47188C22.2219 3.50313 22.1969 3.89375 22.1219 4.39062C22.05 4.88438 21.9281 5.5375 21.775 6.3C21.4719 7.82188 21.0063 9.78438 20.3875 11.7813C19.1875 15.6438 17.2844 19.6188 15.1531 21.0313C14.9719 20.8969 14.775 20.7875 14.5844 20.7344C13.8906 20.5406 13.2969 20.6594 12.6969 20.6594C12.1 20.6594 11.5063 20.5438 10.8125 20.7344C10.6219 20.7875 10.425 20.8969 10.2438 21.0313C8.11252 19.6188 6.2094 15.6438 5.0094 11.7813C4.39065 9.78438 3.92502 7.82188 3.6219 6.3C3.46878 5.5375 3.3469 4.88438 3.27502 4.39062C3.20002 3.89375 3.17502 3.50313 3.17502 3.47188C3.17502 3.39063 3.18752 3.32812 3.3719 3.175C3.5594 3.01875 3.89377 2.85625 4.24065 2.72812C4.52815 2.62188 4.81565 2.55938 5.0594 2.50625C5.3469 2.9125 5.81252 3.175 6.35002 3.175C7.22815 3.175 7.93752 2.46562 7.93752 1.5875C7.93752 0.709375 7.22815 0 6.35002 0ZM34.1281 19.8406C36.325 19.8406 38.0938 21.6125 38.0938 23.8094C38.0938 25.9813 36.3656 27.7375 34.2 27.7781C34.1781 27.7781 34.1531 27.7781 34.1281 27.7781C31.925 27.7781 30.1594 26.0063 30.1594 23.8094C30.1594 21.6125 31.925 19.8406 34.1281 19.8406ZM34.1281 21.4281C32.8219 21.4281 31.7469 22.5031 31.7469 23.8094C31.7469 25.1156 32.8219 26.1906 34.1281 26.1906C35.4313 26.1906 36.5094 25.1156 36.5094 23.8094C36.5094 22.5031 35.4313 21.4281 34.1281 21.4281ZM11.7563 22.2469C12.0094 22.2469 12.3406 22.2469 12.6969 22.2469C13.4156 22.2469 13.9906 22.225 14.1625 22.2719C14.25 22.2969 14.2313 22.2625 14.2375 22.2719C14.2438 22.2813 14.2844 22.4031 14.2844 22.6938C14.2844 23.2719 14.0406 24.3063 13.6656 25.075C13.4781 25.4594 13.2625 25.775 13.0719 25.9688C12.9188 26.1188 12.8125 26.15 12.7469 26.1656C12.7125 26.1625 12.6844 26.1625 12.65 26.1656C12.5844 26.15 12.4781 26.1188 12.325 25.9688C12.1344 25.775 11.9188 25.4594 11.7313 25.075C11.3563 24.3063 11.1125 23.2719 11.1125 22.6938C11.1125 22.4031 11.1531 22.2813 11.1594 22.2719C11.1656 22.2625 11.1469 22.2969 11.2344 22.2719C11.3219 22.2469 11.5031 22.2469 11.7563 22.2469ZM34.1281 23.0156C34.575 23.0156 34.9219 23.3594 34.9219 23.8094C34.9219 24.2594 34.575 24.6031 34.1281 24.6031C33.6781 24.6031 33.3344 24.2594 33.3344 23.8094C33.3344 23.3594 33.6781 23.0156 34.1281 23.0156Z" fill="#396CF0"/>
</svg>
